<mxfile host="app.diagrams.net" modified="2024-06-07T04:10:44.844Z" agent="Mozilla/5.0 (Macintosh; Intel Mac OS X 10_15_7) AppleWebKit/537.36 (KHTML, like Gecko) Chrome/125.0.0.0 Safari/537.36" etag="KvP_GAbCfqdDxLcGNr01" version="24.4.9" type="device">
  <diagram name="Page-1" id="htJ39iwpbiiXY_3XdTej">
    <mxGraphModel dx="1467" dy="790" grid="1" gridSize="10" guides="1" tooltips="1" connect="1" arrows="1" fold="1" page="1" pageScale="1" pageWidth="850" pageHeight="1100" math="0" shadow="0">
      <root>
        <mxCell id="0" />
        <mxCell id="1" parent="0" />
        <mxCell id="IkrXJZr_QuIapHroSiVl-1" value="&lt;u&gt;ID Pengirim&lt;/u&gt;" style="rounded=0;whiteSpace=wrap;html=1;" vertex="1" parent="1">
          <mxGeometry x="100" y="80" width="90" height="30" as="geometry" />
        </mxCell>
        <mxCell id="IkrXJZr_QuIapHroSiVl-2" value="Nama" style="rounded=0;whiteSpace=wrap;html=1;" vertex="1" parent="1">
          <mxGeometry x="190" y="80" width="90" height="30" as="geometry" />
        </mxCell>
        <mxCell id="IkrXJZr_QuIapHroSiVl-3" value="Nomor Telepon" style="rounded=0;whiteSpace=wrap;html=1;" vertex="1" parent="1">
          <mxGeometry x="280" y="80" width="90" height="30" as="geometry" />
        </mxCell>
        <mxCell id="IkrXJZr_QuIapHroSiVl-4" value="Alamat" style="rounded=0;whiteSpace=wrap;html=1;" vertex="1" parent="1">
          <mxGeometry x="370" y="80" width="90" height="30" as="geometry" />
        </mxCell>
        <mxCell id="IkrXJZr_QuIapHroSiVl-5" value="&lt;u&gt;ID Karyawan&lt;/u&gt;" style="rounded=0;whiteSpace=wrap;html=1;" vertex="1" parent="1">
          <mxGeometry x="100" y="170" width="90" height="30" as="geometry" />
        </mxCell>
        <mxCell id="IkrXJZr_QuIapHroSiVl-6" value="Nama" style="rounded=0;whiteSpace=wrap;html=1;" vertex="1" parent="1">
          <mxGeometry x="190" y="170" width="90" height="30" as="geometry" />
        </mxCell>
        <mxCell id="IkrXJZr_QuIapHroSiVl-7" value="Pengirim" style="text;html=1;align=center;verticalAlign=middle;resizable=0;points=[];autosize=1;strokeColor=none;fillColor=none;" vertex="1" parent="1">
          <mxGeometry x="100" y="50" width="70" height="30" as="geometry" />
        </mxCell>
        <mxCell id="IkrXJZr_QuIapHroSiVl-8" value="Nomor Telepon" style="rounded=0;whiteSpace=wrap;html=1;" vertex="1" parent="1">
          <mxGeometry x="280" y="170" width="90" height="30" as="geometry" />
        </mxCell>
        <mxCell id="IkrXJZr_QuIapHroSiVl-9" value="&lt;u&gt;ID Paket&lt;/u&gt;" style="rounded=0;whiteSpace=wrap;html=1;" vertex="1" parent="1">
          <mxGeometry x="100" y="250" width="90" height="30" as="geometry" />
        </mxCell>
        <mxCell id="IkrXJZr_QuIapHroSiVl-10" value="Karyawan" style="text;html=1;align=center;verticalAlign=middle;resizable=0;points=[];autosize=1;strokeColor=none;fillColor=none;" vertex="1" parent="1">
          <mxGeometry x="90" y="140" width="80" height="30" as="geometry" />
        </mxCell>
        <mxCell id="IkrXJZr_QuIapHroSiVl-11" value="Dimensi" style="rounded=0;whiteSpace=wrap;html=1;" vertex="1" parent="1">
          <mxGeometry x="190" y="250" width="90" height="30" as="geometry" />
        </mxCell>
        <mxCell id="IkrXJZr_QuIapHroSiVl-12" value="Berat" style="rounded=0;whiteSpace=wrap;html=1;" vertex="1" parent="1">
          <mxGeometry x="280" y="250" width="90" height="30" as="geometry" />
        </mxCell>
        <mxCell id="IkrXJZr_QuIapHroSiVl-13" value="Jenis" style="rounded=0;whiteSpace=wrap;html=1;" vertex="1" parent="1">
          <mxGeometry x="370" y="250" width="90" height="30" as="geometry" />
        </mxCell>
        <mxCell id="IkrXJZr_QuIapHroSiVl-14" value="Alamat" style="rounded=0;whiteSpace=wrap;html=1;" vertex="1" parent="1">
          <mxGeometry x="460" y="250" width="90" height="30" as="geometry" />
        </mxCell>
        <mxCell id="IkrXJZr_QuIapHroSiVl-49" style="edgeStyle=orthogonalEdgeStyle;rounded=0;orthogonalLoop=1;jettySize=auto;html=1;" edge="1" parent="1" source="IkrXJZr_QuIapHroSiVl-15" target="IkrXJZr_QuIapHroSiVl-1">
          <mxGeometry relative="1" as="geometry">
            <Array as="points">
              <mxPoint x="595" y="140" />
              <mxPoint x="145" y="140" />
            </Array>
          </mxGeometry>
        </mxCell>
        <mxCell id="IkrXJZr_QuIapHroSiVl-15" value="&lt;u&gt;Pengirim ID Pengirim&lt;/u&gt;" style="rounded=0;whiteSpace=wrap;html=1;" vertex="1" parent="1">
          <mxGeometry x="550" y="250" width="90" height="30" as="geometry" />
        </mxCell>
        <mxCell id="IkrXJZr_QuIapHroSiVl-50" style="edgeStyle=orthogonalEdgeStyle;rounded=0;orthogonalLoop=1;jettySize=auto;html=1;entryX=0.5;entryY=1;entryDx=0;entryDy=0;" edge="1" parent="1" source="IkrXJZr_QuIapHroSiVl-16" target="IkrXJZr_QuIapHroSiVl-19">
          <mxGeometry relative="1" as="geometry">
            <Array as="points">
              <mxPoint x="685" y="380" />
              <mxPoint x="145" y="380" />
            </Array>
          </mxGeometry>
        </mxCell>
        <mxCell id="IkrXJZr_QuIapHroSiVl-16" value="&lt;u&gt;Penerima ID Penerima&lt;/u&gt;" style="rounded=0;whiteSpace=wrap;html=1;" vertex="1" parent="1">
          <mxGeometry x="640" y="250" width="90" height="30" as="geometry" />
        </mxCell>
        <mxCell id="IkrXJZr_QuIapHroSiVl-17" value="&lt;u&gt;Kota IDKota&lt;/u&gt;" style="rounded=0;whiteSpace=wrap;html=1;" vertex="1" parent="1">
          <mxGeometry x="730" y="250" width="90" height="30" as="geometry" />
        </mxCell>
        <mxCell id="IkrXJZr_QuIapHroSiVl-18" value="Paket" style="text;html=1;align=center;verticalAlign=middle;resizable=0;points=[];autosize=1;strokeColor=none;fillColor=none;" vertex="1" parent="1">
          <mxGeometry x="105" y="228" width="50" height="30" as="geometry" />
        </mxCell>
        <mxCell id="IkrXJZr_QuIapHroSiVl-19" value="&lt;u&gt;ID Penerima&lt;/u&gt;" style="rounded=0;whiteSpace=wrap;html=1;" vertex="1" parent="1">
          <mxGeometry x="100" y="330" width="90" height="30" as="geometry" />
        </mxCell>
        <mxCell id="IkrXJZr_QuIapHroSiVl-20" value="Nama" style="rounded=0;whiteSpace=wrap;html=1;" vertex="1" parent="1">
          <mxGeometry x="190" y="330" width="90" height="30" as="geometry" />
        </mxCell>
        <mxCell id="IkrXJZr_QuIapHroSiVl-21" value="Alamat" style="rounded=0;whiteSpace=wrap;html=1;" vertex="1" parent="1">
          <mxGeometry x="280" y="330" width="90" height="30" as="geometry" />
        </mxCell>
        <mxCell id="IkrXJZr_QuIapHroSiVl-22" value="Nomor Telepon" style="rounded=0;whiteSpace=wrap;html=1;" vertex="1" parent="1">
          <mxGeometry x="370" y="330" width="90" height="30" as="geometry" />
        </mxCell>
        <mxCell id="IkrXJZr_QuIapHroSiVl-23" value="Penerima&lt;div&gt;&lt;br&gt;&lt;/div&gt;" style="text;html=1;align=center;verticalAlign=middle;resizable=0;points=[];autosize=1;strokeColor=none;fillColor=none;" vertex="1" parent="1">
          <mxGeometry x="100" y="303" width="70" height="40" as="geometry" />
        </mxCell>
        <mxCell id="IkrXJZr_QuIapHroSiVl-24" value="&lt;u&gt;ID Kurir&lt;/u&gt;" style="rounded=0;whiteSpace=wrap;html=1;" vertex="1" parent="1">
          <mxGeometry x="100" y="410" width="90" height="30" as="geometry" />
        </mxCell>
        <mxCell id="IkrXJZr_QuIapHroSiVl-25" value="Nama" style="rounded=0;whiteSpace=wrap;html=1;" vertex="1" parent="1">
          <mxGeometry x="190" y="410" width="90" height="30" as="geometry" />
        </mxCell>
        <mxCell id="IkrXJZr_QuIapHroSiVl-26" value="Nomor Telepon" style="rounded=0;whiteSpace=wrap;html=1;" vertex="1" parent="1">
          <mxGeometry x="280" y="410" width="90" height="30" as="geometry" />
        </mxCell>
        <mxCell id="IkrXJZr_QuIapHroSiVl-48" style="edgeStyle=orthogonalEdgeStyle;rounded=0;orthogonalLoop=1;jettySize=auto;html=1;entryX=0.5;entryY=1;entryDx=0;entryDy=0;" edge="1" parent="1" source="IkrXJZr_QuIapHroSiVl-27" target="IkrXJZr_QuIapHroSiVl-9">
          <mxGeometry relative="1" as="geometry">
            <Array as="points">
              <mxPoint x="470" y="425" />
              <mxPoint x="470" y="300" />
              <mxPoint x="145" y="300" />
            </Array>
          </mxGeometry>
        </mxCell>
        <mxCell id="IkrXJZr_QuIapHroSiVl-27" value="&lt;u&gt;Paket IDPaket&lt;/u&gt;" style="rounded=0;whiteSpace=wrap;html=1;" vertex="1" parent="1">
          <mxGeometry x="370" y="410" width="90" height="30" as="geometry" />
        </mxCell>
        <mxCell id="IkrXJZr_QuIapHroSiVl-28" value="&lt;u&gt;ID Kota&lt;/u&gt;" style="rounded=0;whiteSpace=wrap;html=1;" vertex="1" parent="1">
          <mxGeometry x="100" y="490" width="90" height="30" as="geometry" />
        </mxCell>
        <mxCell id="IkrXJZr_QuIapHroSiVl-29" value="Nama Kota" style="rounded=0;whiteSpace=wrap;html=1;" vertex="1" parent="1">
          <mxGeometry x="190" y="490" width="90" height="30" as="geometry" />
        </mxCell>
        <mxCell id="IkrXJZr_QuIapHroSiVl-30" value="Kurir" style="text;html=1;align=center;verticalAlign=middle;resizable=0;points=[];autosize=1;strokeColor=none;fillColor=none;" vertex="1" parent="1">
          <mxGeometry x="95" y="388" width="50" height="30" as="geometry" />
        </mxCell>
        <mxCell id="IkrXJZr_QuIapHroSiVl-31" value="Kota" style="text;html=1;align=center;verticalAlign=middle;resizable=0;points=[];autosize=1;strokeColor=none;fillColor=none;" vertex="1" parent="1">
          <mxGeometry x="91" y="468" width="50" height="30" as="geometry" />
        </mxCell>
        <mxCell id="IkrXJZr_QuIapHroSiVl-32" value="&lt;u&gt;ID Cabang&lt;/u&gt;" style="rounded=0;whiteSpace=wrap;html=1;" vertex="1" parent="1">
          <mxGeometry x="100" y="560" width="90" height="30" as="geometry" />
        </mxCell>
        <mxCell id="IkrXJZr_QuIapHroSiVl-33" value="Nama Cabang" style="rounded=0;whiteSpace=wrap;html=1;" vertex="1" parent="1">
          <mxGeometry x="190" y="560" width="90" height="30" as="geometry" />
        </mxCell>
        <mxCell id="IkrXJZr_QuIapHroSiVl-34" value="Alamat Cabang" style="rounded=0;whiteSpace=wrap;html=1;" vertex="1" parent="1">
          <mxGeometry x="280" y="560" width="90" height="30" as="geometry" />
        </mxCell>
        <mxCell id="IkrXJZr_QuIapHroSiVl-47" style="edgeStyle=orthogonalEdgeStyle;rounded=0;orthogonalLoop=1;jettySize=auto;html=1;entryX=0.5;entryY=1;entryDx=0;entryDy=0;" edge="1" parent="1" source="IkrXJZr_QuIapHroSiVl-35" target="IkrXJZr_QuIapHroSiVl-28">
          <mxGeometry relative="1" as="geometry">
            <Array as="points">
              <mxPoint x="415" y="550" />
              <mxPoint x="145" y="550" />
            </Array>
          </mxGeometry>
        </mxCell>
        <mxCell id="IkrXJZr_QuIapHroSiVl-35" value="&lt;u&gt;Kota IDKota&lt;/u&gt;" style="rounded=0;whiteSpace=wrap;html=1;" vertex="1" parent="1">
          <mxGeometry x="370" y="560" width="90" height="30" as="geometry" />
        </mxCell>
        <mxCell id="IkrXJZr_QuIapHroSiVl-36" value="Cabang" style="text;html=1;align=center;verticalAlign=middle;resizable=0;points=[];autosize=1;strokeColor=none;fillColor=none;" vertex="1" parent="1">
          <mxGeometry x="85" y="538" width="70" height="30" as="geometry" />
        </mxCell>
        <mxCell id="IkrXJZr_QuIapHroSiVl-37" value="&lt;u&gt;ID Rute&lt;/u&gt;" style="rounded=0;whiteSpace=wrap;html=1;" vertex="1" parent="1">
          <mxGeometry x="100" y="640" width="90" height="30" as="geometry" />
        </mxCell>
        <mxCell id="IkrXJZr_QuIapHroSiVl-46" style="edgeStyle=orthogonalEdgeStyle;rounded=0;orthogonalLoop=1;jettySize=auto;html=1;entryX=0.5;entryY=1;entryDx=0;entryDy=0;" edge="1" parent="1" source="IkrXJZr_QuIapHroSiVl-38" target="IkrXJZr_QuIapHroSiVl-32">
          <mxGeometry relative="1" as="geometry">
            <Array as="points">
              <mxPoint x="325" y="610" />
              <mxPoint x="145" y="610" />
            </Array>
          </mxGeometry>
        </mxCell>
        <mxCell id="IkrXJZr_QuIapHroSiVl-38" value="&lt;u&gt;Cabang IDCabang&lt;/u&gt;" style="rounded=0;whiteSpace=wrap;html=1;" vertex="1" parent="1">
          <mxGeometry x="280" y="640" width="90" height="30" as="geometry" />
        </mxCell>
        <mxCell id="IkrXJZr_QuIapHroSiVl-39" value="Estimasi Waktu" style="rounded=0;whiteSpace=wrap;html=1;" vertex="1" parent="1">
          <mxGeometry x="190" y="640" width="90" height="30" as="geometry" />
        </mxCell>
        <mxCell id="IkrXJZr_QuIapHroSiVl-40" value="Rute Pengiriman" style="text;html=1;align=center;verticalAlign=middle;resizable=0;points=[];autosize=1;strokeColor=none;fillColor=none;" vertex="1" parent="1">
          <mxGeometry x="92" y="616" width="110" height="30" as="geometry" />
        </mxCell>
        <mxCell id="IkrXJZr_QuIapHroSiVl-52" style="edgeStyle=orthogonalEdgeStyle;rounded=0;orthogonalLoop=1;jettySize=auto;html=1;" edge="1" parent="1" target="IkrXJZr_QuIapHroSiVl-28">
          <mxGeometry relative="1" as="geometry">
            <mxPoint x="778.8399999999999" y="287.96" as="sourcePoint" />
            <mxPoint x="155.01000000000005" y="528.95" as="targetPoint" />
            <Array as="points">
              <mxPoint x="779" y="538" />
              <mxPoint x="155" y="538" />
            </Array>
          </mxGeometry>
        </mxCell>
        <mxCell id="IkrXJZr_QuIapHroSiVl-68" style="edgeStyle=orthogonalEdgeStyle;rounded=0;orthogonalLoop=1;jettySize=auto;html=1;entryX=0;entryY=0.5;entryDx=0;entryDy=0;exitX=0.296;exitY=1.033;exitDx=0;exitDy=0;exitPerimeter=0;" edge="1" parent="1" source="IkrXJZr_QuIapHroSiVl-67" target="IkrXJZr_QuIapHroSiVl-9">
          <mxGeometry relative="1" as="geometry">
            <mxPoint x="70.00000000000023" y="743.75" as="sourcePoint" />
            <mxPoint x="70" y="266.25" as="targetPoint" />
            <Array as="points">
              <mxPoint x="70" y="738" />
              <mxPoint x="70" y="265" />
            </Array>
          </mxGeometry>
        </mxCell>
        <mxCell id="IkrXJZr_QuIapHroSiVl-60" value="&lt;u&gt;Paket IDPaket&lt;/u&gt;" style="rounded=0;whiteSpace=wrap;html=1;" vertex="1" parent="1">
          <mxGeometry x="100" y="720" width="90" height="30" as="geometry" />
        </mxCell>
        <mxCell id="IkrXJZr_QuIapHroSiVl-61" value="Tanggal Pengiriman" style="rounded=0;whiteSpace=wrap;html=1;" vertex="1" parent="1">
          <mxGeometry x="190" y="720" width="90" height="30" as="geometry" />
        </mxCell>
        <mxCell id="IkrXJZr_QuIapHroSiVl-62" value="Tanggal Diterima" style="rounded=0;whiteSpace=wrap;html=1;" vertex="1" parent="1">
          <mxGeometry x="280" y="720" width="90" height="30" as="geometry" />
        </mxCell>
        <mxCell id="IkrXJZr_QuIapHroSiVl-63" value="Status Pengiriman" style="rounded=0;whiteSpace=wrap;html=1;" vertex="1" parent="1">
          <mxGeometry x="370" y="720" width="90" height="30" as="geometry" />
        </mxCell>
        <mxCell id="IkrXJZr_QuIapHroSiVl-69" style="edgeStyle=orthogonalEdgeStyle;rounded=0;orthogonalLoop=1;jettySize=auto;html=1;entryX=0;entryY=0.5;entryDx=0;entryDy=0;" edge="1" parent="1" source="IkrXJZr_QuIapHroSiVl-64" target="IkrXJZr_QuIapHroSiVl-1">
          <mxGeometry relative="1" as="geometry">
            <Array as="points">
              <mxPoint x="505" y="760" />
              <mxPoint x="50" y="760" />
              <mxPoint x="50" y="95" />
            </Array>
          </mxGeometry>
        </mxCell>
        <mxCell id="IkrXJZr_QuIapHroSiVl-64" value="&lt;u&gt;Pengirim ID Pengirim&lt;/u&gt;" style="rounded=0;whiteSpace=wrap;html=1;" vertex="1" parent="1">
          <mxGeometry x="460" y="720" width="90" height="30" as="geometry" />
        </mxCell>
        <mxCell id="IkrXJZr_QuIapHroSiVl-71" style="edgeStyle=orthogonalEdgeStyle;rounded=0;orthogonalLoop=1;jettySize=auto;html=1;entryX=0.75;entryY=1;entryDx=0;entryDy=0;" edge="1" parent="1" source="IkrXJZr_QuIapHroSiVl-65" target="IkrXJZr_QuIapHroSiVl-19">
          <mxGeometry relative="1" as="geometry">
            <Array as="points">
              <mxPoint x="595" y="400" />
              <mxPoint x="168" y="400" />
            </Array>
          </mxGeometry>
        </mxCell>
        <mxCell id="IkrXJZr_QuIapHroSiVl-65" value="&lt;u&gt;Penerima ID Penerima&lt;/u&gt;" style="rounded=0;whiteSpace=wrap;html=1;" vertex="1" parent="1">
          <mxGeometry x="550" y="720" width="90" height="30" as="geometry" />
        </mxCell>
        <mxCell id="IkrXJZr_QuIapHroSiVl-72" style="edgeStyle=orthogonalEdgeStyle;rounded=0;orthogonalLoop=1;jettySize=auto;html=1;entryX=0;entryY=0.5;entryDx=0;entryDy=0;" edge="1" parent="1" source="IkrXJZr_QuIapHroSiVl-66" target="IkrXJZr_QuIapHroSiVl-5">
          <mxGeometry relative="1" as="geometry">
            <Array as="points">
              <mxPoint x="685" y="770" />
              <mxPoint x="80" y="770" />
              <mxPoint x="80" y="185" />
            </Array>
          </mxGeometry>
        </mxCell>
        <mxCell id="IkrXJZr_QuIapHroSiVl-66" value="&lt;u&gt;Karyawan ID Karyawan&lt;/u&gt;" style="rounded=0;whiteSpace=wrap;html=1;" vertex="1" parent="1">
          <mxGeometry x="640" y="720" width="90" height="30" as="geometry" />
        </mxCell>
        <mxCell id="IkrXJZr_QuIapHroSiVl-67" value="Pengiriman&lt;div&gt;&lt;br&gt;&lt;/div&gt;" style="text;html=1;align=center;verticalAlign=middle;resizable=0;points=[];autosize=1;strokeColor=none;fillColor=none;" vertex="1" parent="1">
          <mxGeometry x="91" y="697" width="80" height="40" as="geometry" />
        </mxCell>
      </root>
    </mxGraphModel>
  </diagram>
</mxfile>
